<mxfile host="app.diagrams.net" agent="Mozilla/5.0 (Windows NT 10.0; Win64; x64) AppleWebKit/537.36 (KHTML, like Gecko) Chrome/139.0.0.0 Safari/537.36" version="28.1.1">
  <diagram name="Page-1" id="qYvQ6EFGRpoU7gV0GJb0">
    <mxGraphModel dx="872" dy="421" grid="1" gridSize="10" guides="1" tooltips="1" connect="1" arrows="1" fold="1" page="1" pageScale="1" pageWidth="850" pageHeight="1100" math="0" shadow="0">
      <root>
        <mxCell id="0" />
        <mxCell id="1" parent="0" />
        <mxCell id="rbF2WOCH8gyHffA3Jl8H-3" value="" style="edgeStyle=orthogonalEdgeStyle;rounded=0;orthogonalLoop=1;jettySize=auto;html=1;" edge="1" parent="1" source="rbF2WOCH8gyHffA3Jl8H-1" target="rbF2WOCH8gyHffA3Jl8H-2">
          <mxGeometry relative="1" as="geometry" />
        </mxCell>
        <mxCell id="rbF2WOCH8gyHffA3Jl8H-1" value="&lt;font style=&quot;font-size: 18px;&quot;&gt;START&lt;/font&gt;" style="ellipse;whiteSpace=wrap;html=1;fillColor=#6d8764;fontColor=#ffffff;strokeColor=#3A5431;" vertex="1" parent="1">
          <mxGeometry x="290" y="20" width="220" height="80" as="geometry" />
        </mxCell>
        <mxCell id="rbF2WOCH8gyHffA3Jl8H-5" value="" style="edgeStyle=orthogonalEdgeStyle;rounded=0;orthogonalLoop=1;jettySize=auto;html=1;" edge="1" parent="1" source="rbF2WOCH8gyHffA3Jl8H-2" target="rbF2WOCH8gyHffA3Jl8H-4">
          <mxGeometry relative="1" as="geometry" />
        </mxCell>
        <mxCell id="rbF2WOCH8gyHffA3Jl8H-2" value="NEW&lt;div&gt;USER?&lt;/div&gt;&lt;div&gt;run&lt;/div&gt;&lt;div&gt;&lt;font style=&quot;font-size: 9px;&quot;&gt;create_dataset_py&lt;/font&gt;&lt;/div&gt;" style="rhombus;whiteSpace=wrap;html=1;fillColor=#f8cecc;strokeColor=#b85450;gradientColor=#ea6b66;" vertex="1" parent="1">
          <mxGeometry x="320" y="130" width="160" height="90" as="geometry" />
        </mxCell>
        <mxCell id="rbF2WOCH8gyHffA3Jl8H-7" value="" style="edgeStyle=orthogonalEdgeStyle;rounded=0;orthogonalLoop=1;jettySize=auto;html=1;" edge="1" parent="1" source="rbF2WOCH8gyHffA3Jl8H-4" target="rbF2WOCH8gyHffA3Jl8H-6">
          <mxGeometry relative="1" as="geometry" />
        </mxCell>
        <mxCell id="rbF2WOCH8gyHffA3Jl8H-4" value="RECOGNIZE&lt;div&gt;THE FACE&lt;/div&gt;&lt;div&gt;run&lt;/div&gt;&lt;div&gt;face_recognisation.py&lt;/div&gt;" style="shape=parallelogram;perimeter=parallelogramPerimeter;whiteSpace=wrap;html=1;fixedSize=1;fillColor=#fad9d5;strokeColor=#ae4132;" vertex="1" parent="1">
          <mxGeometry x="310" y="250" width="180" height="60" as="geometry" />
        </mxCell>
        <mxCell id="rbF2WOCH8gyHffA3Jl8H-9" value="" style="edgeStyle=orthogonalEdgeStyle;rounded=0;orthogonalLoop=1;jettySize=auto;html=1;" edge="1" parent="1" source="rbF2WOCH8gyHffA3Jl8H-6" target="rbF2WOCH8gyHffA3Jl8H-8">
          <mxGeometry relative="1" as="geometry" />
        </mxCell>
        <mxCell id="rbF2WOCH8gyHffA3Jl8H-6" value="FACE&amp;nbsp;&lt;div&gt;RECOGNIZED&lt;/div&gt;" style="rhombus;whiteSpace=wrap;html=1;fillColor=#b0e3e6;strokeColor=#0e8088;" vertex="1" parent="1">
          <mxGeometry x="320" y="340" width="160" height="90" as="geometry" />
        </mxCell>
        <mxCell id="rbF2WOCH8gyHffA3Jl8H-12" value="" style="edgeStyle=orthogonalEdgeStyle;rounded=0;orthogonalLoop=1;jettySize=auto;html=1;" edge="1" parent="1" source="rbF2WOCH8gyHffA3Jl8H-8" target="rbF2WOCH8gyHffA3Jl8H-11">
          <mxGeometry relative="1" as="geometry" />
        </mxCell>
        <mxCell id="rbF2WOCH8gyHffA3Jl8H-8" value="Stored in csv file&lt;div&gt;with registration&amp;nbsp;&lt;/div&gt;&lt;div&gt;Number &amp;amp; Data&lt;/div&gt;&lt;div&gt;Time of Entry&lt;/div&gt;" style="shape=parallelogram;perimeter=parallelogramPerimeter;whiteSpace=wrap;html=1;fixedSize=1;fillColor=#fa6800;fontColor=#000000;strokeColor=#C73500;" vertex="1" parent="1">
          <mxGeometry x="280" y="450" width="250" height="60" as="geometry" />
        </mxCell>
        <mxCell id="rbF2WOCH8gyHffA3Jl8H-11" value="End" style="ellipse;whiteSpace=wrap;html=1;fillColor=#e3c800;fontColor=#000000;strokeColor=#B09500;" vertex="1" parent="1">
          <mxGeometry x="310" y="540" width="190" height="60" as="geometry" />
        </mxCell>
        <mxCell id="rbF2WOCH8gyHffA3Jl8H-37" value="" style="edgeStyle=orthogonalEdgeStyle;rounded=0;orthogonalLoop=1;jettySize=auto;html=1;" edge="1" parent="1" source="rbF2WOCH8gyHffA3Jl8H-20" target="rbF2WOCH8gyHffA3Jl8H-36">
          <mxGeometry relative="1" as="geometry" />
        </mxCell>
        <mxCell id="rbF2WOCH8gyHffA3Jl8H-39" value="" style="edgeStyle=orthogonalEdgeStyle;rounded=0;orthogonalLoop=1;jettySize=auto;html=1;" edge="1" parent="1" source="rbF2WOCH8gyHffA3Jl8H-20" target="rbF2WOCH8gyHffA3Jl8H-2">
          <mxGeometry relative="1" as="geometry" />
        </mxCell>
        <mxCell id="rbF2WOCH8gyHffA3Jl8H-46" value="Yes" style="edgeLabel;html=1;align=center;verticalAlign=middle;resizable=0;points=[];" vertex="1" connectable="0" parent="rbF2WOCH8gyHffA3Jl8H-39">
          <mxGeometry x="0.05" y="-4" relative="1" as="geometry">
            <mxPoint y="-11" as="offset" />
          </mxGeometry>
        </mxCell>
        <mxCell id="rbF2WOCH8gyHffA3Jl8H-20" value="Give your&lt;div&gt;&amp;nbsp;photograph&lt;/div&gt;" style="whiteSpace=wrap;html=1;fillColor=#f0a30a;fontColor=#000000;strokeColor=#BD7000;" vertex="1" parent="1">
          <mxGeometry x="560" y="140" width="170" height="70" as="geometry" />
        </mxCell>
        <mxCell id="rbF2WOCH8gyHffA3Jl8H-33" value="" style="endArrow=none;html=1;rounded=0;exitX=1;exitY=0.5;exitDx=0;exitDy=0;" edge="1" parent="1" source="rbF2WOCH8gyHffA3Jl8H-6">
          <mxGeometry width="50" height="50" relative="1" as="geometry">
            <mxPoint x="400" y="250" as="sourcePoint" />
            <mxPoint x="800" y="60" as="targetPoint" />
            <Array as="points">
              <mxPoint x="800" y="390" />
            </Array>
          </mxGeometry>
        </mxCell>
        <mxCell id="rbF2WOCH8gyHffA3Jl8H-34" value="" style="endArrow=classic;html=1;rounded=0;entryX=0.5;entryY=0;entryDx=0;entryDy=0;" edge="1" parent="1" target="rbF2WOCH8gyHffA3Jl8H-20">
          <mxGeometry width="50" height="50" relative="1" as="geometry">
            <mxPoint x="800" y="60" as="sourcePoint" />
            <mxPoint x="640" y="130" as="targetPoint" />
            <Array as="points">
              <mxPoint x="640" y="60" />
            </Array>
          </mxGeometry>
        </mxCell>
        <mxCell id="rbF2WOCH8gyHffA3Jl8H-38" value="" style="edgeStyle=orthogonalEdgeStyle;rounded=0;orthogonalLoop=1;jettySize=auto;html=1;" edge="1" parent="1" source="rbF2WOCH8gyHffA3Jl8H-36" target="rbF2WOCH8gyHffA3Jl8H-4">
          <mxGeometry relative="1" as="geometry" />
        </mxCell>
        <mxCell id="rbF2WOCH8gyHffA3Jl8H-36" value="Store the face&lt;div&gt;data in folder&lt;/div&gt;&lt;div&gt;on your name&lt;/div&gt;" style="whiteSpace=wrap;html=1;fillColor=#647687;fontColor=#ffffff;strokeColor=#314354;" vertex="1" parent="1">
          <mxGeometry x="570" y="240" width="150" height="80" as="geometry" />
        </mxCell>
        <mxCell id="rbF2WOCH8gyHffA3Jl8H-42" value="Yes" style="text;html=1;align=center;verticalAlign=middle;resizable=0;points=[];autosize=1;strokeColor=none;fillColor=none;" vertex="1" parent="1">
          <mxGeometry x="350" y="420" width="40" height="30" as="geometry" />
        </mxCell>
        <mxCell id="rbF2WOCH8gyHffA3Jl8H-43" value="No" style="text;html=1;align=center;verticalAlign=middle;resizable=0;points=[];autosize=1;strokeColor=none;fillColor=none;" vertex="1" parent="1">
          <mxGeometry x="350" y="220" width="40" height="30" as="geometry" />
        </mxCell>
        <mxCell id="rbF2WOCH8gyHffA3Jl8H-44" value="No" style="text;html=1;align=center;verticalAlign=middle;resizable=0;points=[];autosize=1;strokeColor=none;fillColor=none;" vertex="1" parent="1">
          <mxGeometry x="540" y="360" width="40" height="30" as="geometry" />
        </mxCell>
      </root>
    </mxGraphModel>
  </diagram>
</mxfile>
